<mxfile host="Electron" modified="2023-12-22T03:57:14.001Z" agent="Mozilla/5.0 (Windows NT 10.0; Win64; x64) AppleWebKit/537.36 (KHTML, like Gecko) draw.io/22.1.2 Chrome/114.0.5735.289 Electron/25.9.4 Safari/537.36" etag="py-kHY0LpttKl54Ovugc" version="22.1.2" type="device">
  <diagram name="Page-1" id="e7e014a7-5840-1c2e-5031-d8a46d1fe8dd">
    <mxGraphModel dx="1305" dy="776" grid="1" gridSize="10" guides="1" tooltips="1" connect="1" arrows="1" fold="1" page="1" pageScale="1" pageWidth="1169" pageHeight="826" background="none" math="0" shadow="0">
      <root>
        <mxCell id="0" />
        <mxCell id="1" parent="0" />
        <mxCell id="xbwyY5brJPwB1_wpa5x8-41" value="" style="ellipse;html=1;shape=startState;fillColor=#000000;strokeColor=#ff0000;rounded=1;shadow=0;comic=0;labelBackgroundColor=none;fontFamily=Verdana;fontSize=18;fontColor=#000000;align=center;direction=south;" vertex="1" parent="1">
          <mxGeometry x="130" y="135" width="30" height="30" as="geometry" />
        </mxCell>
        <mxCell id="xbwyY5brJPwB1_wpa5x8-42" value="Start the game" style="rounded=1;whiteSpace=wrap;html=1;arcSize=24;fillColor=#ffffc0;strokeColor=#ff0000;shadow=0;comic=0;labelBackgroundColor=none;fontFamily=Verdana;fontSize=18;fontColor=#000000;align=center;" vertex="1" parent="1">
          <mxGeometry x="340" y="240" width="120" height="60" as="geometry" />
        </mxCell>
        <mxCell id="xbwyY5brJPwB1_wpa5x8-43" value="Title screen" style="rounded=1;whiteSpace=wrap;html=1;arcSize=24;fillColor=#ffffc0;strokeColor=#ff0000;shadow=0;comic=0;labelBackgroundColor=none;fontFamily=Verdana;fontSize=18;fontColor=#000000;align=center;" vertex="1" parent="1">
          <mxGeometry x="240" y="120" width="120" height="60" as="geometry" />
        </mxCell>
        <mxCell id="xbwyY5brJPwB1_wpa5x8-48" value="Help screen" style="rounded=1;whiteSpace=wrap;html=1;arcSize=24;fillColor=#ffffc0;strokeColor=#ff0000;shadow=0;comic=0;labelBackgroundColor=none;fontFamily=Verdana;fontSize=18;fontColor=#000000;align=center;" vertex="1" parent="1">
          <mxGeometry x="700" y="240" width="120" height="60" as="geometry" />
        </mxCell>
        <mxCell id="xbwyY5brJPwB1_wpa5x8-49" value="Quit game" style="rounded=1;whiteSpace=wrap;html=1;arcSize=24;fillColor=#ffffc0;strokeColor=#ff0000;shadow=0;comic=0;labelBackgroundColor=none;fontFamily=Verdana;fontSize=18;fontColor=#000000;align=center;" vertex="1" parent="1">
          <mxGeometry x="520" y="240" width="120" height="60" as="geometry" />
        </mxCell>
        <mxCell id="xbwyY5brJPwB1_wpa5x8-62" style="edgeStyle=orthogonalEdgeStyle;html=1;labelBackgroundColor=none;endArrow=open;endSize=8;strokeColor=#ff0000;fontFamily=Verdana;fontSize=18;align=left;" edge="1" parent="1" source="xbwyY5brJPwB1_wpa5x8-41" target="xbwyY5brJPwB1_wpa5x8-43">
          <mxGeometry relative="1" as="geometry" />
        </mxCell>
        <mxCell id="xbwyY5brJPwB1_wpa5x8-63" style="edgeStyle=orthogonalEdgeStyle;html=1;labelBackgroundColor=none;endArrow=open;endSize=8;strokeColor=#ff0000;fontFamily=Verdana;fontSize=18;align=left;entryX=0.5;entryY=0;entryDx=0;entryDy=0;exitX=0.5;exitY=1;exitDx=0;exitDy=0;" edge="1" parent="1" source="xbwyY5brJPwB1_wpa5x8-76" target="xbwyY5brJPwB1_wpa5x8-49">
          <mxGeometry relative="1" as="geometry">
            <Array as="points">
              <mxPoint x="580" y="180" />
              <mxPoint x="580" y="180" />
            </Array>
            <mxPoint x="440" y="230" as="targetPoint" />
          </mxGeometry>
        </mxCell>
        <mxCell id="xbwyY5brJPwB1_wpa5x8-69" style="edgeStyle=elbowEdgeStyle;html=1;labelBackgroundColor=none;endArrow=open;endSize=8;strokeColor=#ff0000;fontFamily=Verdana;fontSize=18;align=left;entryX=0;entryY=0.5;exitX=1;exitY=0.5;exitDx=0;exitDy=0;entryDx=0;entryDy=0;" edge="1" parent="1" source="xbwyY5brJPwB1_wpa5x8-43" target="xbwyY5brJPwB1_wpa5x8-76">
          <mxGeometry relative="1" as="geometry">
            <mxPoint x="419.9966666666667" y="225" as="sourcePoint" />
            <mxPoint x="420.33" y="100" as="targetPoint" />
          </mxGeometry>
        </mxCell>
        <mxCell id="xbwyY5brJPwB1_wpa5x8-54" value="" style="ellipse;html=1;shape=endState;fillColor=#000000;strokeColor=#ff0000;rounded=1;shadow=0;comic=0;labelBackgroundColor=none;fontFamily=Verdana;fontSize=18;fontColor=#000000;align=center;" vertex="1" parent="1">
          <mxGeometry x="565" y="383" width="30" height="30" as="geometry" />
        </mxCell>
        <mxCell id="xbwyY5brJPwB1_wpa5x8-73" style="edgeStyle=elbowEdgeStyle;html=1;entryX=0.5;entryY=0;labelBackgroundColor=none;endArrow=open;endSize=8;strokeColor=#ff0000;fontFamily=Verdana;fontSize=18;align=left;entryDx=0;entryDy=0;exitX=0.5;exitY=1;exitDx=0;exitDy=0;" edge="1" parent="1" source="xbwyY5brJPwB1_wpa5x8-49" target="xbwyY5brJPwB1_wpa5x8-54">
          <mxGeometry relative="1" as="geometry">
            <mxPoint x="580" y="313" as="sourcePoint" />
            <mxPoint x="420" y="373" as="targetPoint" />
          </mxGeometry>
        </mxCell>
        <mxCell id="xbwyY5brJPwB1_wpa5x8-76" value="&lt;font style=&quot;font-size: 18px;&quot;&gt;Press?&lt;/font&gt;" style="rhombus;whiteSpace=wrap;html=1;fillColor=#ffffc0;strokeColor=#ff3c31;" vertex="1" parent="1">
          <mxGeometry x="510" y="127.5" width="140" height="45" as="geometry" />
        </mxCell>
        <mxCell id="xbwyY5brJPwB1_wpa5x8-77" style="edgeStyle=orthogonalEdgeStyle;html=1;labelBackgroundColor=none;endArrow=open;endSize=8;strokeColor=#ff0000;fontFamily=Verdana;fontSize=18;align=left;entryX=0.5;entryY=0;entryDx=0;entryDy=0;exitX=0.5;exitY=1;exitDx=0;exitDy=0;" edge="1" parent="1" source="xbwyY5brJPwB1_wpa5x8-76" target="xbwyY5brJPwB1_wpa5x8-48">
          <mxGeometry relative="1" as="geometry">
            <Array as="points">
              <mxPoint x="580" y="200" />
              <mxPoint x="760" y="200" />
            </Array>
            <mxPoint x="580" y="190" as="sourcePoint" />
            <mxPoint x="850" y="257.5" as="targetPoint" />
          </mxGeometry>
        </mxCell>
        <mxCell id="xbwyY5brJPwB1_wpa5x8-79" style="edgeStyle=orthogonalEdgeStyle;html=1;labelBackgroundColor=none;endArrow=open;endSize=8;strokeColor=#ff0000;fontFamily=Verdana;fontSize=18;align=left;entryX=0.5;entryY=0;entryDx=0;entryDy=0;exitX=0.5;exitY=1;exitDx=0;exitDy=0;" edge="1" parent="1" source="xbwyY5brJPwB1_wpa5x8-76" target="xbwyY5brJPwB1_wpa5x8-42">
          <mxGeometry relative="1" as="geometry">
            <Array as="points">
              <mxPoint x="580" y="200" />
              <mxPoint x="400" y="200" />
            </Array>
            <mxPoint x="449" y="220.5" as="sourcePoint" />
            <mxPoint x="719" y="287.5" as="targetPoint" />
          </mxGeometry>
        </mxCell>
        <mxCell id="xbwyY5brJPwB1_wpa5x8-81" style="edgeStyle=orthogonalEdgeStyle;html=1;labelBackgroundColor=none;endArrow=open;endSize=8;strokeColor=#ff0000;fontFamily=Verdana;fontSize=18;align=left;entryX=0.5;entryY=0;entryDx=0;entryDy=0;exitX=0.75;exitY=0;exitDx=0;exitDy=0;" edge="1" parent="1" source="xbwyY5brJPwB1_wpa5x8-48" target="xbwyY5brJPwB1_wpa5x8-43">
          <mxGeometry relative="1" as="geometry">
            <Array as="points">
              <mxPoint x="790" y="100" />
              <mxPoint x="300" y="100" />
            </Array>
            <mxPoint x="730" y="128" as="sourcePoint" />
            <mxPoint x="1000" y="195" as="targetPoint" />
          </mxGeometry>
        </mxCell>
        <mxCell id="xbwyY5brJPwB1_wpa5x8-83" value="&lt;font style=&quot;font-size: 18px;&quot;&gt;Game over?&lt;/font&gt;" style="rhombus;whiteSpace=wrap;html=1;fillColor=#ffffc0;strokeColor=#ff3c31;" vertex="1" parent="1">
          <mxGeometry x="330" y="440" width="140" height="60" as="geometry" />
        </mxCell>
        <mxCell id="xbwyY5brJPwB1_wpa5x8-85" value="Gamin&#39;" style="rounded=1;whiteSpace=wrap;html=1;arcSize=24;fillColor=#ffffc0;strokeColor=#ff0000;shadow=0;comic=0;labelBackgroundColor=none;fontFamily=Verdana;fontSize=18;fontColor=#000000;align=center;" vertex="1" parent="1">
          <mxGeometry x="340" y="340" width="120" height="60" as="geometry" />
        </mxCell>
        <mxCell id="xbwyY5brJPwB1_wpa5x8-87" style="edgeStyle=elbowEdgeStyle;html=1;labelBackgroundColor=none;endArrow=open;endSize=8;strokeColor=#ff0000;fontFamily=Verdana;fontSize=18;align=left;entryX=0.5;entryY=0;exitX=0.5;exitY=1;exitDx=0;exitDy=0;entryDx=0;entryDy=0;" edge="1" parent="1" source="xbwyY5brJPwB1_wpa5x8-42" target="xbwyY5brJPwB1_wpa5x8-85">
          <mxGeometry relative="1" as="geometry">
            <mxPoint x="530" y="530" as="sourcePoint" />
            <mxPoint x="520" y="430" as="targetPoint" />
            <Array as="points">
              <mxPoint x="400" y="320" />
            </Array>
          </mxGeometry>
        </mxCell>
        <mxCell id="xbwyY5brJPwB1_wpa5x8-88" style="edgeStyle=elbowEdgeStyle;html=1;labelBackgroundColor=none;endArrow=open;endSize=8;strokeColor=#ff0000;fontFamily=Verdana;fontSize=18;align=left;entryX=0.5;entryY=0;exitX=0.5;exitY=1;exitDx=0;exitDy=0;entryDx=0;entryDy=0;" edge="1" parent="1" source="xbwyY5brJPwB1_wpa5x8-85" target="xbwyY5brJPwB1_wpa5x8-83">
          <mxGeometry relative="1" as="geometry">
            <mxPoint x="480" y="413" as="sourcePoint" />
            <mxPoint x="480" y="453" as="targetPoint" />
            <Array as="points">
              <mxPoint x="400" y="420" />
            </Array>
          </mxGeometry>
        </mxCell>
        <mxCell id="xbwyY5brJPwB1_wpa5x8-120" style="edgeStyle=elbowEdgeStyle;html=1;labelBackgroundColor=none;endArrow=open;endSize=8;strokeColor=#ff0000;fontFamily=Verdana;fontSize=18;align=left;entryX=1;entryY=0.5;exitX=1;exitY=0.5;exitDx=0;exitDy=0;entryDx=0;entryDy=0;" edge="1" parent="1" source="xbwyY5brJPwB1_wpa5x8-83" target="xbwyY5brJPwB1_wpa5x8-85">
          <mxGeometry relative="1" as="geometry">
            <mxPoint x="565" y="450" as="sourcePoint" />
            <mxPoint x="565" y="490" as="targetPoint" />
            <Array as="points">
              <mxPoint x="490" y="420" />
            </Array>
          </mxGeometry>
        </mxCell>
        <mxCell id="xbwyY5brJPwB1_wpa5x8-121" value="Result" style="rounded=1;whiteSpace=wrap;html=1;arcSize=24;fillColor=#ffffc0;strokeColor=#ff0000;shadow=0;comic=0;labelBackgroundColor=none;fontFamily=Verdana;fontSize=18;fontColor=#000000;align=center;" vertex="1" parent="1">
          <mxGeometry x="340" y="540" width="120" height="60" as="geometry" />
        </mxCell>
        <mxCell id="xbwyY5brJPwB1_wpa5x8-122" style="edgeStyle=elbowEdgeStyle;html=1;labelBackgroundColor=none;endArrow=open;endSize=8;strokeColor=#ff0000;fontFamily=Verdana;fontSize=18;align=left;exitX=0.5;exitY=0;exitDx=0;exitDy=0;" edge="1" parent="1" source="xbwyY5brJPwB1_wpa5x8-76">
          <mxGeometry relative="1" as="geometry">
            <mxPoint x="680" y="132.5" as="sourcePoint" />
            <mxPoint x="580" y="100" as="targetPoint" />
            <Array as="points" />
          </mxGeometry>
        </mxCell>
        <mxCell id="xbwyY5brJPwB1_wpa5x8-123" style="edgeStyle=elbowEdgeStyle;html=1;labelBackgroundColor=none;endArrow=open;endSize=8;strokeColor=#ff0000;fontFamily=Verdana;fontSize=18;align=left;entryX=0.5;entryY=1;exitX=0;exitY=0.5;exitDx=0;exitDy=0;entryDx=0;entryDy=0;" edge="1" parent="1" source="xbwyY5brJPwB1_wpa5x8-121" target="xbwyY5brJPwB1_wpa5x8-43">
          <mxGeometry relative="1" as="geometry">
            <mxPoint x="280" y="580" as="sourcePoint" />
            <mxPoint x="280" y="620" as="targetPoint" />
            <Array as="points">
              <mxPoint x="300" y="390" />
            </Array>
          </mxGeometry>
        </mxCell>
        <mxCell id="xbwyY5brJPwB1_wpa5x8-124" style="edgeStyle=elbowEdgeStyle;html=1;labelBackgroundColor=none;endArrow=open;endSize=8;strokeColor=#ff0000;fontFamily=Verdana;fontSize=18;align=left;exitX=0.5;exitY=1;exitDx=0;exitDy=0;entryX=0.5;entryY=0;entryDx=0;entryDy=0;" edge="1" parent="1" source="xbwyY5brJPwB1_wpa5x8-83" target="xbwyY5brJPwB1_wpa5x8-121">
          <mxGeometry relative="1" as="geometry">
            <mxPoint x="330" y="600" as="sourcePoint" />
            <mxPoint x="320" y="530" as="targetPoint" />
            <Array as="points">
              <mxPoint x="400" y="530" />
            </Array>
          </mxGeometry>
        </mxCell>
      </root>
    </mxGraphModel>
  </diagram>
</mxfile>
